<?xml version="1.0" encoding="UTF-8" standalone="no"?>
<!-- Generator: Adobe Illustrator 15.1.0, SVG Export Plug-In . SVG Version: 6.00 Build 0)  -->

<svg
   xmlns:dc="http://purl.org/dc/elements/1.1/"
   xmlns:cc="http://creativecommons.org/ns#"
   xmlns:rdf="http://www.w3.org/1999/02/22-rdf-syntax-ns#"
   xmlns:svg="http://www.w3.org/2000/svg"
   xmlns="http://www.w3.org/2000/svg"
   xmlns:xlink="http://www.w3.org/1999/xlink"
   xmlns:sodipodi="http://sodipodi.sourceforge.net/DTD/sodipodi-0.dtd"
   xmlns:inkscape="http://www.inkscape.org/namespaces/inkscape"
   version="1.1"
   id="Layer_1"
   x="0px"
   y="0px"
   width="64"
   height="64"
   viewBox="0 0 64.000002 64"
   enable-background="new 0 0 88.061 100"
   xml:space="preserve"
   inkscape:version="0.91 r13725"
   sodipodi:docname="clock-icon.svg"><metadata
     id="metadata15"><rdf:RDF><cc:Work
         rdf:about=""><dc:format>image/svg+xml</dc:format><dc:type
           rdf:resource="http://purl.org/dc/dcmitype/StillImage" /><dc:title /></cc:Work></rdf:RDF></metadata><defs
     id="defs13"><linearGradient
       inkscape:collect="always"
       id="linearGradient6989"><stop
         style="stop-color:#ff6600;stop-opacity:1;"
         offset="0"
         id="stop6991" /><stop
         style="stop-color:#ff6600;stop-opacity:0;"
         offset="1"
         id="stop6993" /></linearGradient><linearGradient
       inkscape:collect="always"
       id="linearGradient6975"><stop
         style="stop-color:#0000ff;stop-opacity:1;"
         offset="0"
         id="stop6977" /><stop
         style="stop-color:#0000ff;stop-opacity:0;"
         offset="1"
         id="stop6979" /></linearGradient><linearGradient
       inkscape:collect="always"
       xlink:href="#linearGradient6975"
       id="linearGradient6981"
       x1="0.337428"
       y1="35.784489"
       x2="63.662571"
       y2="35.784489"
       gradientUnits="userSpaceOnUse"
       gradientTransform="matrix(1.010657,0,0,1.0105419,-0.00359597,-0.67120212)" /><linearGradient
       inkscape:collect="always"
       xlink:href="#linearGradient6975"
       id="linearGradient6983"
       x1="37.165394"
       y1="8.4822178"
       x2="61.204632"
       y2="8.4822178"
       gradientUnits="userSpaceOnUse"
       gradientTransform="matrix(1.010657,0,0,1.0105419,-0.00359597,-0.67120212)" /><linearGradient
       inkscape:collect="always"
       xlink:href="#linearGradient6975"
       id="linearGradient6987"
       x1="2.7960863"
       y1="8.4822178"
       x2="26.835325"
       y2="8.4822178"
       gradientUnits="userSpaceOnUse"
       gradientTransform="matrix(1.010657,0,0,1.0105419,-0.00359597,-0.67120212)" /><linearGradient
       inkscape:collect="always"
       xlink:href="#linearGradient6989"
       id="linearGradient6995"
       x1="-70.69709"
       y1="-3.9539225"
       x2="-133.29021"
       y2="-4.3100891"
       gradientUnits="userSpaceOnUse"
       gradientTransform="matrix(1.0174834,0,0,1.0261712,71.42324,-31.190534)" /></defs><sodipodi:namedview
     pagecolor="#ffffff"
     bordercolor="#666666"
     borderopacity="1"
     objecttolerance="10"
     gridtolerance="10"
     guidetolerance="10"
     inkscape:pageopacity="0"
     inkscape:pageshadow="2"
     inkscape:window-width="1920"
     inkscape:window-height="1017"
     id="namedview11"
     showgrid="false"
     fit-margin-top="0"
     fit-margin-left="0"
     fit-margin-right="0"
     fit-margin-bottom="0"
     inkscape:zoom="4.72"
     inkscape:cx="12.276654"
     inkscape:cy="11.243853"
     inkscape:window-x="-8"
     inkscape:window-y="-8"
     inkscape:window-maximized="1"
     inkscape:current-layer="Layer_1" /><g
     id="g6997"
     transform="translate(-0.337428,0.33001999)"
     inkscape:export-xdpi="90"
     inkscape:export-ydpi="90"><ellipse
       transform="scale(-1,-1)"
       ry="28.113985"
       rx="31.915359"
       cy="-35.436058"
       cx="-32.259918"
       id="path6905"
       style="opacity:1;fill:url(#linearGradient6995);fill-opacity:1;fill-rule:nonzero;stroke:none;stroke-width:22.79999924;stroke-miterlimit:4;stroke-dasharray:none;stroke-opacity:1" /><path
       inkscape:connector-curvature="0"
       style="opacity:1;fill:url(#linearGradient6987);fill-opacity:1;fill-rule:nonzero;stroke:none;stroke-width:0.67500001;stroke-miterlimit:4;stroke-dasharray:none;stroke-opacity:1"
       id="path3"
       d="M 5.246808,16.130888 C 10.611877,10.31906 18.331705,6.2589104 27.117714,5.0941123 L 23.110265,0.69668265 C 21.025868,-1.2021932 16.519123,-0.38939518 10.850987,2.4931583 5.1828516,5.3750722 2.131114,8.4048254 2.9552795,10.9437 l 2.2915285,5.187188 z" /><path
       sodipodi:nodetypes="sscsssssss"
       inkscape:connector-curvature="0"
       style="opacity:1;fill:#3ebcff;fill-opacity:1;fill-rule:nonzero;stroke:none;stroke-width:0.67500001;stroke-miterlimit:4;stroke-dasharray:none;stroke-opacity:1"
       id="path5"
       d="m 56.768391,35.772517 c 0,-1.204859 -0.860256,-2.181537 -1.921494,-2.181537 l -21.792314,0 0,-12.912396 c 0,-1.204859 -0.860255,-2.181536 -1.921493,-2.181536 -1.06124,0 -1.921496,0.976677 -1.921496,2.181536 l 0,15.093933 c 0,1.204859 0.860256,2.181536 1.921496,2.181536 l 23.713807,0 c 1.061238,0 1.921494,-0.976677 1.921494,-2.181536 z" /><path
       inkscape:connector-curvature="0"
       style="opacity:1;fill:url(#linearGradient6983);fill-opacity:1;fill-rule:nonzero;stroke:none;stroke-width:0.67500001;stroke-miterlimit:4;stroke-dasharray:none;stroke-opacity:1"
       id="path7"
       d="M 59.428775,16.130888 C 54.063705,10.31906 46.343879,6.2589104 37.557869,5.0941123 l 4.00745,-4.39742965 c 2.084396,-1.89887585 6.591142,-1.08607783 12.259277,1.79647565 5.668134,2.8819139 8.719873,5.9116671 7.895707,8.4505417 l -2.291528,5.187188 z" /><path
       inkscape:connector-curvature="0"
       style="opacity:1;fill:url(#linearGradient6981);fill-opacity:1;fill-rule:nonzero;stroke:none;stroke-width:0.67500001;stroke-miterlimit:4;stroke-dasharray:none;stroke-opacity:1"
       id="path9"
       d="m 32.337428,7.3110674 c -17.644697,0 -32,12.6412516 -32,28.1791366 0,15.539165 14.355303,28.179776 32,28.179776 17.644697,0 32,-12.641251 32,-28.179776 7.27e-4,-15.537885 -14.354577,-28.1791366 -32,-28.1791366 z m 0,52.5163626 c -15.239064,0 -27.6364297,-10.917736 -27.6364297,-24.336587 0,-13.418849 12.3973657,-24.337225 27.6364297,-24.337225 15.239064,0 27.63643,10.917736 27.63643,24.336586 0,13.41885 -12.397366,24.337226 -27.63643,24.337226 z" /></g></svg>